<svg xmlns="http://www.w3.org/2000/svg" viewBox="0 0 43 41.3"><path d="M40.6 18.8c.8-.8 1.1-1.9.7-2.9-.3-1-1.2-1.8-2.3-1.9l-9.7-1.4c-.4-.1-.8-.3-1-.7L24 3.1c-.5-1-1.5-1.6-2.6-1.6s-2.1.6-2.6 1.6l-4.3 8.8c-.2.4-.5.6-1 .7L4 14c-1.1.2-2 .9-2.3 1.9-.3 1-.1 2.2.7 2.9l7 6.8c.3.3.4.7.4 1.1l-1.7 9.6c-.1.8.1 1.7.6 2.3.9 1 2.3 1.3 3.5.7l8.6-4.5c.4-.2.8-.2 1.2 0l8.7 4.5c.4.2.9.3 1.3.3.8 0 1.6-.4 2.2-1 .5-.6.8-1.5.6-2.3l-1.7-9.6c-.1-.4.1-.8.4-1.1l7.1-6.8zm0 0" fill="none" stroke="#f2a113" stroke-width="3" stroke-miterlimit="10"/></svg>