<svg xmlns="http://www.w3.org/2000/svg" viewBox="0 0 511.915 511.915" width="512" height="512"><g fill="#144184"><path d="M204.798 340.648l136.423-76.322-136.423-79.872z"/><path d="M506.914 148.693a.802.802 0 0 1-.017-.137c-.213-1.604-5.376-39.637-21.743-57.498-19.243-21.675-40.568-23.859-52.028-25.028l-3.268-.358c-68.77-5.385-172.706-5.973-174.071-5.982-1.041.009-104.977.597-174.123 6.025l-2.876.316c-11.46 1.169-32.777 3.354-51.942 24.934-16.444 17.954-21.615 55.979-21.845 57.728C4.949 149.129 0 192.819 0 235.938v40.431c0 43.145 4.949 86.81 5.018 87.39.213 1.604 5.367 39.62 21.743 57.455 17.758 19.985 39.902 22.861 53.137 24.585 2.338.299 4.412.555 6.929 1.024 39.518 4.088 163.772 5.35 169.148 5.402 1.041 0 105.096-.247 174.31-5.615l2.978-.333c11.435-1.203 32.725-3.456 51.789-24.951 16.452-17.929 21.623-55.936 21.862-57.685.043-.444 5.001-44.126 5.001-87.253v-40.44c0-43.129-4.958-86.819-5.001-87.255zM362.564 271.94l-162.133 90.701a8.533 8.533 0 0 1-4.164 1.092 8.577 8.577 0 0 1-4.318-1.169 8.543 8.543 0 0 1-4.215-7.364V169.574a8.55 8.55 0 0 1 4.284-7.407 8.566 8.566 0 0 1 8.559.043l162.133 94.925a8.528 8.528 0 0 1 4.224 7.441 8.542 8.542 0 0 1-4.37 7.364z"/></g></svg>